<?xml version="1.0" standalone="no"?>
<!DOCTYPE svg PUBLIC "-//W3C//DTD SVG 20010904//EN"
 "http://www.w3.org/TR/2001/REC-SVG-20010904/DTD/svg10.dtd">
<svg version="1.0" xmlns="http://www.w3.org/2000/svg"
 width="20.000000pt" height="20.000000pt" viewBox="0 0 250.000000 250.000000"
 preserveAspectRatio="xMidYMid meet">

<g transform="translate(0.000000,250.000000) scale(0.100000,-0.100000)"
fill="#000000" stroke="none">
<path d="M175 2431 c-22 -10 -52 -31 -67 -47 -61 -65 -58 -7 -58 -1126 0 -683
4 -1036 11 -1061 13 -49 63 -105 114 -128 38 -18 95 -19 1065 -19 635 0 1038
4 1059 10 51 14 97 50 123 95 l23 40 3 1040 c3 1136 5 1084 -54 1149 -15 15
-45 37 -68 47 -39 18 -88 19 -1076 19 -986 0 -1037 -1 -1075 -19z m1663 -506
l162 -68 -2 -606 -3 -606 -175 -72 -175 -73 -298 298 -299 299 -200 -149 -200
-149 -71 49 -72 50 0 378 0 377 72 24 72 24 195 -145 c108 -80 200 -146 205
-146 5 0 143 133 308 295 164 162 303 293 308 291 6 -2 83 -34 173 -71z"/>
<path d="M1450 1399 c-102 -77 -186 -143 -188 -147 -2 -7 356 -281 380 -290 4
-2 8 127 8 287 0 160 -3 291 -7 290 -5 0 -91 -63 -193 -140z"/>
<path d="M650 1251 c0 -105 2 -191 5 -191 9 0 235 183 235 190 0 7 -216 181
-232 188 -5 2 -8 -82 -8 -187z"/>
</g>
</svg>
